<svg xmlns="http://www.w3.org/2000/svg" width="1024" height="1024" viewBox="0 0 1024 1024">
  <rect width="1024" height="1024" fill="#142D4C"/>
  <g transform="scale(42.6666667)">
    <path
    d="M5.5 4h13A2.5 2.5 0 0 1 21 6.5v7A2.5 2.5 0 0 1 18.5 16H10l-4 3.4A.5.5 0 0 1 5.2 19V16A2.5 2.5 0 0 1 4 13.5v-7A2.5 2.5 0 0 1 5.5 4Z"
    fill="#FFFFFF"
    fill-opacity="0.12"
    stroke="#FFFFFF"
    stroke-width="1.8"
    stroke-linecap="round"
    stroke-linejoin="round"
    />
    <path
    d="M12 7.2c.3 1.7 1.1 2.5 2.8 2.8-1.7.3-2.5 1.1-2.8 2.8-.3-1.7-1.1-2.5-2.8-2.8 1.7-.3 2.5-1.1 2.8-2.8Z"
    fill="#FFFFFF"
    />
  </g>
</svg>
